<?xml version="1.0" ?><!-- Uploaded to: SVG Repo, www.svgrepo.com, Generator: SVG Repo Mixer Tools -->
<svg width="800px" height="800px" viewBox="0 0 64 64" data-name="Layer 1" id="Layer_1" xmlns="http://www.w3.org/2000/svg"><defs><style>
      .cls-1 {
        fill: #f76c5e;
      }

      .cls-2 {
        fill: #ffbc0a;
      }

      .cls-3 {
        fill: #a3cef1;
      }

      .cls-4 {
        fill: #6096ba;
      }

      .cls-5 {
        fill: #274c77;
      }
    </style></defs><path class="cls-4" d="M38,31c0,3.31-2.69,6-6,6s-6-2.69-6-6"/><path class="cls-2" d="M44,15c0-6.63-5.37-12-12-12s-12,5.37-12,12c0,4.44,2.42,8.31,6,10.38v1.62h12v-1.62c3.58-2.08,6-5.94,6-10.38Z"/><path class="cls-4" d="M37.65,17c.23-.63,.35-1.3,.35-2s-.12-1.37-.35-2H14l-6,2,6,2h23.65Z"/><path class="cls-4" d="M43.83,17c.11-.65,.17-1.32,.17-2s-.06-1.35-.17-2h10.17c1.1,0,2,.9,2,2,0,.55-.22,1.05-.59,1.41-.36,.37-.86,.59-1.41,.59h-10.17Z"/><path class="cls-5" d="M17,43l-2,6-2-6V25c0-1.1,.9-2,2-2h0c1.1,0,2,.9,2,2v18Z"/><path class="cls-1" d="M17,27h-4v-2c0-1.1,.9-2,2-2,.55,0,1.05,.22,1.41,.59,.37,.36,.59,.86,.59,1.41v2Z"/><polygon class="cls-1" points="17 43 13 43 15 49 17 43"/><path class="cls-1" d="M52,17v-4h2c1.1,0,2,.9,2,2,0,.55-.22,1.05-.59,1.41-.36,.37-.86,.59-1.41,.59h-2Z"/><polygon class="cls-1" points="14 17 14 13 8 15 14 17"/><path class="cls-5" d="M51,43l-2,6-2-6V25c0-1.1,.9-2,2-2h0c1.1,0,2,.9,2,2v18Z"/><path class="cls-1" d="M51,27h-4v-2c0-1.1,.9-2,2-2,.55,0,1.05,.22,1.41,.59,.37,.36,.59,.86,.59,1.41v2Z"/><polygon class="cls-1" points="51 43 47 43 49 49 51 43"/><path class="cls-4" d="M30,41l2-6,2,6v18c0,1.1-.9,2-2,2h0c-1.1,0-2-.9-2-2v-18Z"/><path class="cls-1" d="M30,57h4v2c0,1.1-.9,2-2,2-.55,0-1.05-.22-1.41-.59-.37-.36-.59-.86-.59-1.41v-2Z"/><polygon class="cls-1" points="30 41 34 41 32 35 30 41"/><rect class="cls-5" height="4" rx="1" ry="1" width="14" x="25" y="27"/><path class="cls-3" d="M37.65,17c-.81,2.33-3.04,4-5.65,4s-4.84-1.67-5.65-4h11.3Z"/><path class="cls-3" d="M37.65,13c-.81-2.33-3.04-4-5.65-4s-4.84,1.67-5.65,4h11.3Z"/></svg>